<?xml version="1.0" standalone="no"?>
<!DOCTYPE svg PUBLIC "-//W3C//DTD SVG 1.0//EN" "http://www.w3.org/TR/2001/REC-SVG-20010904/DTD/svg10.dtd">
<svg xmlns="http://www.w3.org/2000/svg" xmlns:xlink="http://www.w3.org/1999/xlink" id="body_1" width="71" height="71">

<g transform="matrix(0.568 0 0 0.568 0 0)">
	<g>
        <path d="M120 62.5C 120 78.37819 114.386215 91.93107 103.15864 103.15864C 91.93107 114.386215 78.37819 120 62.5 120C 46.621815 120 33.068935 114.386215 21.841362 103.15864C 10.613788 91.93107 5 78.37819 5 62.5C 5 46.621815 10.613788 33.068935 21.841362 21.841362C 33.068935 10.613788 46.621815 5 62.5 5C 78.37819 5 91.93107 10.613788 103.15864 21.841362C 114.386215 33.068935 120 46.621815 120 62.5C 120 63.169113 119.98833 63.83802 119.96497 64.50672" stroke="#26BBA4" stroke-width="10" fill="none" />
        <path d="M85.481 85.481C 72.789 98.173004 52.211002 98.173004 39.519 85.481C 26.827 72.789 26.827 52.211002 39.519 39.519C 52.211002 26.827 72.789 26.827 85.481 39.519" stroke="#26BBA4" stroke-width="10" stroke-linecap="square" fill="none" />
	</g>
</g>
</svg>